# xmcd CD database file
#
# Track frame offsets:
#	150
#	13750
#	27137
#	41665
#	53692
#	66562
#	79382
#	90420
#	104225
#	118857
#	132152
#	146650
#	159205
#
# Disc length: 2301 seconds
#
# Revision: 6
# Processed by: cddbd v1.5.1PL0 Copyright (c) Steve Scherf et al.
# Submitted via: CDex 1.51
#
DISCID=b308fb0d
DTITLE=Billie Holiday - Greatest Hits
DYEAR=1998
DGENRE=Jazz
TTITLE0=Miss Brown To You [1935]
TTITLE1=What A Little Moonlight Can Do [1935]
TTITLE2=I Cried For You [1936]
TTITLE3=Billie's Blues (I Love My Man) [1936]
TTITLE4=A Sailboat In The Moonlight [1937]
TTITLE5=I Can't Get Started [1937]
TTITLE6=When A Woman Loves A Man [1938]
TTITLE7=Some Other Spring [1939]
TTITLE8=Solitude [1941]
TTITLE9=God Bless The Child [1941]
TTITLE10=Gloomy Sunday [1941]
TTITLE11=The Very Thought Of You [1938]
TTITLE12=Body And Soul [1940]
EXTD=CD Columbia Legacy - Sony\nCK 65757\n\ninfo by LIF, aug,2002 YEAR: 1998
EXTT0=
EXTT1=
EXTT2=
EXTT3=
EXTT4=
EXTT5=
EXTT6=
EXTT7=
EXTT8=
EXTT9=
EXTT10=
EXTT11=
EXTT12=
PLAYORDER=
